# xmcd
#
# Track frame offsets:
#	150
#	15205
#	29283
#	43243
#	62865
#	83125
#	97867
#	116402
#	130513
#	143479
#	159311
#	170803
#	185494
#	199426
#	214433
#
# Disc length: 3152 seconds
#
# Revision: 1
# Processed by: cddbd v1.5.1PL2 Copyright (c) Steve Scherf et al.
# Submitted via: audiograbber 1.82.01
#
DISCID=c90c4e0f
DTITLE=Steve Haggerty and The Wanted - Bullet and A Game
DYEAR=2006
DGENRE=Modern Country - Southern Rock
TTITLE0=Take A Little Trip
TTITLE1=Living In A Band
TTITLE2=Down At The Twist And Shout
TTITLE3=Bullet and A Game
TTITLE4=Fast Moving Train
TTITLE5=Play Something Country
TTITLE6=Hurry Sundown
TTITLE7=Lonestar
TTITLE8=Take Me Out Of The Country
TTITLE9=Knoxville Girl
TTITLE10=Walking After Midnight
TTITLE11=That´s The Kind Of Love
TTITLE12=It´s Alright To Be A Redneck
TTITLE13=Hillbillies
TTITLE14=Desperado
EXTD=
EXTT0=
EXTT1=
EXTT2=
EXTT3=
EXTT4=
EXTT5=
EXTT6=
EXTT7=
EXTT8=
EXTT9=
EXTT10=
EXTT11=
EXTT12=
EXTT13=
EXTT14=
PLAYORDER=
